<?xml version="1.0" encoding="utf-8"?><svg xmlns="http://www.w3.org/2000/svg" xmlns:xlink="http://www.w3.org/1999/xlink">
    <symbol viewBox="0 0 30 30" id="arrow-left" xmlns="http://www.w3.org/2000/svg">
        <path fill-rule="evenodd" clip-rule="evenodd" d="M20.9374 21.25L11.5624 15L20.9374 8.75003C21.0606 8.66795 21.1663 8.56243 21.2486 8.43949C21.331 8.31654 21.3883 8.17859 21.4173 8.0335C21.4463 7.88841 21.4465 7.73902 21.4178 7.59387C21.389 7.44872 21.332 7.31064 21.2499 7.18753C21.1679 7.06441 21.0624 6.95867 20.9394 6.87634C20.8165 6.794 20.6785 6.73669 20.5334 6.70767C20.3883 6.67865 20.2389 6.6785 20.0938 6.70721C19.9486 6.73593 19.8106 6.79295 19.6874 6.87503L9.05995 13.96C8.88875 14.0742 8.74838 14.2288 8.6513 14.4103C8.55421 14.5917 8.50342 14.7943 8.50342 15C8.50342 15.2058 8.55421 15.4084 8.6513 15.5898C8.74838 15.7712 8.88875 15.9259 9.05995 16.04L19.6874 23.125C19.8106 23.2071 19.9486 23.2641 20.0938 23.2928C20.2389 23.3216 20.3883 23.3214 20.5334 23.2924C20.6785 23.2634 20.8165 23.2061 20.9394 23.1237C21.0624 23.0414 21.1679 22.9356 21.2499 22.8125C21.332 22.6894 21.389 22.5513 21.4178 22.4062C21.4465 22.261 21.4463 22.1116 21.4173 21.9666C21.3883 21.8215 21.331 21.6835 21.2486 21.5606C21.1663 21.4376 21.0606 21.3321 20.9374 21.25Z" />
    </symbol>
    <symbol viewBox="0 0 30 30" id="arrow-right" xmlns="http://www.w3.org/2000/svg">
        <path fill-rule="evenodd" clip-rule="evenodd" d="M9.06249 21.25L18.4375 15L9.06249 8.75003C8.93938 8.66795 8.83363 8.56243 8.7513 8.43949C8.66897 8.31654 8.61165 8.17859 8.58263 8.0335C8.55362 7.88841 8.55346 7.73902 8.58218 7.59387C8.61089 7.44872 8.66791 7.31064 8.74999 7.18753C8.83207 7.06441 8.93759 6.95867 9.06053 6.87634C9.18347 6.794 9.32143 6.73669 9.46652 6.70767C9.61161 6.67865 9.761 6.6785 9.90615 6.70721C10.0513 6.73593 10.1894 6.79295 10.3125 6.87503L20.94 13.96C21.1112 14.0742 21.2516 14.2288 21.3486 14.4103C21.4457 14.5917 21.4965 14.7943 21.4965 15C21.4965 15.2058 21.4457 15.4084 21.3486 15.5898C21.2516 15.7712 21.1112 15.9259 20.94 16.04L10.3125 23.125C10.1894 23.2071 10.0513 23.2641 9.90615 23.2928C9.761 23.3216 9.61161 23.3214 9.46652 23.2924C9.32143 23.2634 9.18347 23.2061 9.06053 23.1237C8.93759 23.0414 8.83207 22.9356 8.74999 22.8125C8.66791 22.6894 8.61089 22.5513 8.58218 22.4062C8.55346 22.261 8.55362 22.1116 8.58263 21.9666C8.61165 21.8215 8.66897 21.6835 8.7513 21.5606C8.83363 21.4376 8.93938 21.3321 9.06249 21.25Z" />
    </symbol>
    <symbol viewBox="0 0 32 32" id="avatar" xmlns="http://www.w3.org/2000/svg">
        <path d="M16 8C15.0111 8 14.0444 8.29325 13.2222 8.84265C12.3999 9.39206 11.759 10.173 11.3806 11.0866C11.0022 12.0002 10.9031 13.0055 11.0961 13.9755C11.289 14.9454 11.7652 15.8363 12.4645 16.5355C13.1637 17.2348 14.0546 17.711 15.0246 17.9039C15.9945 18.0969 16.9998 17.9978 17.9134 17.6194C18.8271 17.241 19.6079 16.6001 20.1574 15.7779C20.7068 14.9556 21 13.9889 21 13C21 11.6739 20.4732 10.4021 19.5355 9.46447C18.5979 8.52678 17.3261 8 16 8ZM16 16C15.4067 16 14.8266 15.8241 14.3333 15.4944C13.8399 15.1648 13.4554 14.6962 13.2284 14.1481C13.0013 13.5999 12.9419 12.9967 13.0576 12.4147C13.1734 11.8328 13.4591 11.2982 13.8787 10.8787C14.2982 10.4591 14.8328 10.1734 15.4147 10.0576C15.9967 9.94189 16.5999 10.0013 17.1481 10.2284C17.6962 10.4554 18.1648 10.8399 18.4944 11.3333C18.8241 11.8266 19 12.4067 19 13C18.9992 13.7954 18.6829 14.558 18.1204 15.1204C17.558 15.6829 16.7954 15.9992 16 16Z" />
        <path d="M16 2C13.2311 2 10.5243 2.82109 8.22202 4.35943C5.91973 5.89777 4.12532 8.08427 3.06569 10.6424C2.00607 13.2006 1.72882 16.0155 2.26901 18.7313C2.80921 21.447 4.14258 23.9416 6.10051 25.8995C8.05845 27.8574 10.553 29.1908 13.2687 29.731C15.9845 30.2712 18.7994 29.9939 21.3576 28.9343C23.9157 27.8747 26.1022 26.0803 27.6406 23.778C29.1789 21.4757 30 18.7689 30 16C29.9958 12.2883 28.5194 8.72977 25.8948 6.10518C23.2702 3.48059 19.7117 2.00423 16 2ZM10 26.377V25C10.0008 24.2046 10.3171 23.442 10.8796 22.8796C11.442 22.3171 12.2046 22.0008 13 22H19C19.7954 22.0008 20.558 22.3171 21.1204 22.8796C21.6829 23.442 21.9992 24.2046 22 25V26.377C20.1792 27.4402 18.1085 28.0005 16 28.0005C13.8915 28.0005 11.8208 27.4402 10 26.377ZM23.992 24.926C23.9721 23.6143 23.4377 22.363 22.5039 21.4416C21.5702 20.5202 20.3118 20.0025 19 20H13C11.6882 20.0025 10.4298 20.5202 9.4961 21.4416C8.56235 22.363 8.02794 23.6143 8.00801 24.926C6.19457 23.3067 4.91574 21.1749 4.34084 18.8127C3.76594 16.4505 3.92211 13.9693 4.78864 11.6979C5.65518 9.42637 7.19123 7.47167 9.19338 6.09257C11.1955 4.71347 13.5693 3.97503 16.0005 3.97503C18.4317 3.97503 20.8055 4.71347 22.8076 6.09257C24.8098 7.47167 26.3458 9.42637 27.2124 11.6979C28.0789 13.9693 28.2351 16.4505 27.6602 18.8127C27.0853 21.1749 25.8064 23.3067 23.993 24.926H23.992Z" />
    </symbol>
    <symbol viewBox="0 0 24 24" id="book" xmlns="http://www.w3.org/2000/svg">
        <g clip-path="url(#dclip0_302_3248)">
            <path d="M1.5 4.24194C2.8275 3.68694 4.731 3.08844 6.582 2.90244C8.577 2.70144 10.269 2.99694 11.25 4.03044V18.6494C9.8475 17.8544 8.07 17.7449 6.4305 17.9099C4.6605 18.0899 2.8755 18.6014 1.5 19.1264V4.24194ZM12.75 4.03044C13.731 2.99694 15.423 2.70144 17.418 2.90244C19.269 3.08844 21.1725 3.68694 22.5 4.24194V19.1264C21.123 18.6014 19.3395 18.0884 17.5695 17.9114C15.9285 17.7449 14.1525 17.8529 12.75 18.6494V4.03044ZM12 2.67444C10.5225 1.40394 8.3805 1.21494 6.4305 1.40994C4.1595 1.63944 1.8675 2.41794 0.4395 3.06744C0.308474 3.12704 0.197363 3.22307 0.119432 3.34409C0.0415 3.46511 3.98571e-05 3.606 0 3.74994L0 20.2499C3.4743e-05 20.3754 0.0315557 20.4989 0.0916756 20.6091C0.151796 20.7192 0.238593 20.8125 0.344116 20.8804C0.44964 20.9483 0.570517 20.9887 0.695675 20.9978C0.820833 21.0069 0.946271 20.9844 1.0605 20.9324C2.3835 20.3324 4.515 19.6109 6.5805 19.4024C8.694 19.1894 10.4655 19.5329 11.415 20.7179C11.4853 20.8055 11.5743 20.8762 11.6756 20.9248C11.7768 20.9734 11.8877 20.9986 12 20.9986C12.1123 20.9986 12.2232 20.9734 12.3244 20.9248C12.4257 20.8762 12.5147 20.8055 12.585 20.7179C13.5345 19.5329 15.306 19.1894 17.418 19.4024C19.485 19.6109 21.618 20.3324 22.9395 20.9324C23.0537 20.9844 23.1792 21.0069 23.3043 20.9978C23.4295 20.9887 23.5504 20.9483 23.6559 20.8804C23.7614 20.8125 23.8482 20.7192 23.9083 20.6091C23.9684 20.4989 24 20.3754 24 20.2499V3.74994C24 3.606 23.9585 3.46511 23.8806 3.34409C23.8026 3.22307 23.6915 3.12704 23.5605 3.06744C22.1325 2.41794 19.8405 1.63944 17.5695 1.40994C15.6195 1.21344 13.4775 1.40394 12 2.67444Z" />
        </g>
        <defs>
            <clipPath id="dclip0_302_3248">
                <rect width="24" height="24" />
            </clipPath>
        </defs>
    </symbol>
    <symbol viewBox="0 0 24 24" id="chat" xmlns="http://www.w3.org/2000/svg">
        <path d="M14 19C17.771 19 19.657 19 20.828 17.828C22 16.657 22 14.771 22 11C22 7.229 22 5.343 20.828 4.172C19.657 3 17.771 3 14 3H10C6.229 3 4.343 3 3.172 4.172C2 5.343 2 7.229 2 11C2 14.771 2 16.657 3.172 17.828C3.825 18.482 4.7 18.771 6 18.898" stroke-width="2" stroke-linecap="round" stroke-linejoin="round" />
        <path d="M12 11V11.01M8 11V11.01M16 11V11.01M14 19C12.764 19 11.402 19.5 10.159 20.145C8.161 21.182 7.162 21.701 6.67 21.37C6.178 21.04 6.271 20.015 6.458 17.966L6.5 17.5" stroke-width="2" stroke-linecap="round" />
    </symbol>
    <symbol viewBox="0 0 24 24" id="function" xmlns="http://www.w3.org/2000/svg">
        <path d="M20.25 6.25H3.75C3.19772 6.25 2.75 6.69772 2.75 7.25V16.75C2.75 17.3023 3.19772 17.75 3.75 17.75H20.25C20.8023 17.75 21.25 17.3023 21.25 16.75V7.25C21.25 6.69772 20.8023 6.25 20.25 6.25Z" stroke-linecap="round" stroke-linejoin="round" />
        <path d="M17.75 20.25V3.75C17.75 3.19772 17.3023 2.75 16.75 2.75L7.25 2.75C6.69771 2.75 6.25 3.19772 6.25 3.75L6.25 20.25C6.25 20.8023 6.69771 21.25 7.25 21.25H16.75C17.3023 21.25 17.75 20.8023 17.75 20.25Z" stroke-linecap="round" stroke-linejoin="round" />
        <path d="M15.065 10.985L12.595 14.26M15.065 14.26L12.595 10.985M15.725 9.5H11.67L9.73002 14.5L8.27502 10.985" stroke-linecap="round" stroke-linejoin="round" />
    </symbol>
    <symbol viewBox="0 0 24 24" id="hands" xmlns="http://www.w3.org/2000/svg">
        <g clip-path="url(#gclip0_302_3253)">
            <path d="M10.5428 23.9101C8.40226 23.6326 6.19876 22.7146 4.59376 21.4298C0.980262 18.5468 -0.659989 13.9921 0.277511 9.46884C0.679511 7.51584 1.72651 5.46084 3.06676 3.98034C4.05406 2.86921 5.24468 1.95709 6.57451 1.29309C8.34001 0.398338 10.0275 -0.00366211 12.0195 -0.00366211C13.449 -0.00366211 14.598 0.183838 15.9143 0.633088C17.6435 1.22622 19.2144 2.20631 20.5074 3.49864C21.8004 4.79097 22.7813 6.36144 23.3753 8.09034C24.0788 10.1528 24.207 12.3481 23.7578 14.5238C23.3985 16.2428 22.4723 18.1763 21.3323 19.5743C20.8635 20.1526 19.785 21.1838 19.2188 21.6016C17.5247 22.8597 15.5324 23.6553 13.4378 23.9101C12.8205 23.9881 11.1405 23.9843 10.5435 23.9101H10.5428ZM13.8128 22.9066C16.7365 22.4166 19.3458 20.7852 21.0668 18.3713C23.094 15.5236 23.637 11.7031 22.4925 8.37159C22.2233 7.59009 21.555 6.28584 21.0668 5.59809C20.5238 4.82859 19.1798 3.48084 18.4065 2.93784C17.6565 2.40684 16.3793 1.76184 15.5078 1.47684C13.9346 0.954193 12.2642 0.791693 10.6198 1.00134C8.97543 1.211 7.39918 1.78744 6.00751 2.68809C4.69814 3.5482 3.57888 4.66747 2.71876 5.97684C1.81834 7.36776 1.24201 8.94324 1.03236 10.5869C0.822703 12.2305 0.985088 13.9002 1.50751 15.4726C1.79626 16.3433 2.44126 17.6251 2.96851 18.3751C3.51526 19.1446 4.85926 20.4923 5.62876 21.0353C6.32026 21.5198 7.62076 22.1873 8.40226 22.4611C10.1417 23.0521 12.0001 23.2051 13.8128 22.9066ZM9.65626 18.8828C9.09552 18.7983 8.55757 18.6016 8.07451 18.3046C7.64101 18.0271 4.36726 14.8201 4.20751 14.5193C4.02376 14.1758 4.34401 13.5503 4.80151 13.3591L5.01601 13.2691L4.35601 12.5971C3.99301 12.2258 3.64876 11.8313 3.59401 11.7218C3.46501 11.4721 3.46126 10.9366 3.58201 10.6981C3.63301 10.6006 3.75376 10.4521 3.84751 10.3696C4.00801 10.2368 4.02301 10.1896 4.00801 9.85359C3.98851 9.55659 4.01551 9.43959 4.14451 9.21684C4.33201 8.89659 4.71901 8.68134 5.09776 8.67759C5.30851 8.67759 5.36326 8.65059 5.45326 8.49384C5.68801 8.08359 6.35926 7.93509 6.87151 8.18559L7.14901 8.31834L7.28551 8.18559C7.47301 8.01384 7.84801 7.86159 8.09401 7.86159C8.58601 7.86159 9.28126 8.42784 9.28126 8.82609C9.28126 9.30234 8.84776 9.38484 8.41801 8.99034C8.13301 8.72484 7.98826 8.69709 7.87126 8.88459C7.81276 8.97459 7.95301 9.14259 8.79301 9.99009C9.63301 10.8338 9.78526 11.0138 9.78526 11.1736C9.77862 11.296 9.72649 11.4116 9.63909 11.4976C9.55168 11.5836 9.4353 11.6339 9.31276 11.6386C9.16051 11.6386 8.91076 11.4196 7.75801 10.2713C6.58201 9.09909 6.36751 8.91159 6.27376 8.97084C6.01951 9.13134 6.10576 9.24834 7.48051 10.6268C8.22676 11.3768 8.84026 12.0406 8.84026 12.1036C8.84026 12.2326 8.72326 12.4711 8.62576 12.5333C8.54578 12.5685 8.45877 12.5846 8.37151 12.5806C8.21101 12.5843 7.96501 12.3616 6.65701 11.0573C5.34451 9.75234 5.10976 9.54159 5.01601 9.60009C4.75801 9.76434 4.84426 9.87759 6.34051 11.3813C7.15726 12.1981 7.84051 12.9286 7.86001 13.0066C7.90276 13.1476 7.80901 13.3936 7.68451 13.4791C7.6019 13.5142 7.51245 13.5304 7.42276 13.5263C7.26226 13.5263 7.05976 13.3508 5.97751 12.2686C4.93426 11.2253 4.69201 11.0108 4.55926 11.0228C4.18426 11.0656 4.31701 11.2336 6.25426 13.1753C7.93426 14.8591 8.14876 15.0976 8.14876 15.2731C8.15045 15.3375 8.13596 15.4014 8.10662 15.4587C8.07727 15.5161 8.03399 15.5652 7.98076 15.6016C7.68001 15.8401 7.56301 15.7853 6.80476 15.0511C6.41776 14.6798 6.01951 14.3206 5.91376 14.2538C5.72251 14.1368 5.23801 14.0858 5.14801 14.1796C5.11651 14.2066 5.83126 14.9611 6.73426 15.8551C8.23801 17.3431 8.40976 17.4961 8.85151 17.7068C9.25846 17.9095 9.70665 18.0156 10.1613 18.0169C10.6159 18.0182 11.0647 17.9146 11.4728 17.7143C12.7343 17.1128 13.434 15.6518 13.0898 14.3273C12.918 13.6673 12.7028 13.3508 11.8358 12.4561C10.836 11.4323 10.605 11.1511 10.359 10.6591C10.0853 10.1086 9.96826 9.57309 9.96826 8.90484C9.96826 8.18184 10.0425 7.85409 10.3628 7.17834C10.6673 6.53409 11.304 5.85834 11.9333 5.51034C13.1678 4.82259 14.793 4.88109 15.972 5.65134C16.2068 5.80359 17.0543 6.60084 18.1088 7.65909C19.6755 9.22959 19.8548 9.43284 19.8548 9.61209C19.8548 10.0381 19.5068 10.5106 19.1205 10.6081C18.9758 10.6471 19.0035 10.6861 19.6598 11.3543C20.0423 11.7413 20.3978 12.1591 20.4525 12.2881C20.6363 12.7298 20.5538 13.1588 20.2178 13.5106C20.046 13.6906 20.0228 13.7528 20.0183 14.1121C20.0145 14.4286 19.9793 14.5613 19.854 14.7413C19.7551 14.8878 19.6226 15.0085 19.4677 15.0934C19.3127 15.1783 19.1397 15.225 18.963 15.2296C18.7208 15.2296 18.6743 15.2528 18.5528 15.4366C18.279 15.8588 17.568 16.0066 17.1075 15.7336L16.8773 15.5971L16.713 15.7576C16.35 16.1056 15.7635 16.1521 15.3188 15.8671C14.9595 15.6406 14.694 15.3241 14.694 15.1246C14.694 14.9491 14.9483 14.6596 15.1043 14.6596C15.2528 14.6596 15.4523 14.7766 15.6788 14.9881C15.9053 15.2026 16.101 15.2026 16.1318 14.9843C16.1475 14.8673 15.96 14.6446 15.2018 13.8826C14.4045 13.0778 14.2523 12.8941 14.2523 12.7381C14.2505 12.651 14.2666 12.5645 14.2995 12.4838C14.3858 12.3548 14.628 12.2648 14.7758 12.3038C14.8538 12.3233 15.5138 12.9331 16.2368 13.6553C16.9635 14.3821 17.6003 14.9753 17.6588 14.9753C17.8193 14.9753 17.9243 14.8148 17.85 14.6783C17.8148 14.6161 17.2013 13.9868 16.4903 13.2758C15.3773 12.1666 15.1973 11.9596 15.1973 11.7953C15.1936 11.7069 15.2098 11.6188 15.2445 11.5373C15.3113 11.4398 15.5453 11.3228 15.678 11.3228C15.7365 11.3228 16.4708 12.0061 17.3108 12.8423C18.8498 14.3738 18.963 14.4593 19.1235 14.2058C19.182 14.1121 18.9713 13.8736 17.6663 12.5648C16.3185 11.2133 16.1393 11.0101 16.1393 10.8346C16.1393 10.7138 16.194 10.5886 16.2803 10.5106C16.5653 10.2413 16.6515 10.2961 18.0383 11.6746C19.3508 12.9833 19.4678 13.0688 19.6283 12.8191C19.6868 12.7253 19.4213 12.4366 17.7923 10.8031C16.0185 9.02184 15.8903 8.87709 15.8903 8.67009C15.8903 8.35734 16.0703 8.20884 16.4175 8.23284C16.4798 8.23659 16.8548 8.55309 17.2418 8.93184C17.6325 9.31059 18.054 9.66609 18.1793 9.72084C18.4253 9.82209 18.7103 9.83784 18.8318 9.75984C18.9488 9.68559 15.7065 6.49434 15.285 6.27159C14.9236 6.07653 14.5261 5.9575 14.117 5.92181C13.7079 5.88613 13.2958 5.93456 12.906 6.06411C12.5163 6.19366 12.1573 6.4016 11.8509 6.67513C11.5446 6.94865 11.2975 7.28198 11.1248 7.65459C10.9215 8.08809 10.8945 8.21709 10.8668 8.77584C10.8435 9.30309 10.863 9.46734 10.9763 9.80334C11.1795 10.4011 11.355 10.6471 12.2655 11.5771C13.2503 12.5851 13.4378 12.8153 13.6875 13.3546C14.391 14.8546 14.094 16.5893 12.9338 17.7451C12.051 18.6316 10.848 19.0456 9.65626 18.8821V18.8828Z" />
        </g>
        <defs>
            <clipPath id="gclip0_302_3253">
                <rect width="24" height="24" />
            </clipPath>
        </defs>
    </symbol>
    <symbol viewBox="0 0 24 24" id="people" xmlns="http://www.w3.org/2000/svg">
        <path d="M9 3C7.67392 3 6.40215 3.52678 5.46447 4.46447C4.52678 5.40215 4 6.67392 4 8C4 9.32608 4.52678 10.5979 5.46447 11.5355C6.40215 12.4732 7.67392 13 9 13C10.3261 13 11.5979 12.4732 12.5355 11.5355C13.4732 10.5979 14 9.32608 14 8C14 6.67392 13.4732 5.40215 12.5355 4.46447C11.5979 3.52678 10.3261 3 9 3ZM6 8C6 7.20435 6.31607 6.44129 6.87868 5.87868C7.44129 5.31607 8.20435 5 9 5C9.79565 5 10.5587 5.31607 11.1213 5.87868C11.6839 6.44129 12 7.20435 12 8C12 8.79565 11.6839 9.55871 11.1213 10.1213C10.5587 10.6839 9.79565 11 9 11C8.20435 11 7.44129 10.6839 6.87868 10.1213C6.31607 9.55871 6 8.79565 6 8ZM16.908 8.218C16.6268 8.0747 16.3156 8 16 8V6C16.6315 6.00004 17.2541 6.14961 17.8167 6.43647C18.3793 6.72333 18.866 7.13933 19.2369 7.65042C19.6079 8.16151 19.8526 8.75317 19.9509 9.37699C20.0493 10.0008 19.9985 10.639 19.8028 11.2395C19.6072 11.8399 19.2721 12.3855 18.825 12.8316C18.378 13.2776 17.8317 13.6115 17.2308 13.8058C16.6299 14.0002 15.9916 14.0495 15.368 13.9498C14.7444 13.8501 14.1533 13.6041 13.643 13.232L14.821 11.616C15.044 11.7783 15.2982 11.8927 15.5676 11.9521C15.837 12.0114 16.1157 12.0144 16.3863 11.9609C16.6569 11.9073 16.9134 11.7983 17.1399 11.6408C17.3663 11.4833 17.5578 11.2807 17.7021 11.0456C17.8465 10.8106 17.9407 10.5482 17.9787 10.275C18.0168 10.0018 17.998 9.72373 17.9234 9.45816C17.8488 9.1926 17.7201 8.94534 17.5454 8.73191C17.3706 8.51849 17.1536 8.34352 16.908 8.218ZM19.998 21C19.9977 19.9397 19.5764 18.923 18.8267 18.1733C18.077 17.4236 17.0603 17.0023 16 17.002V15C17.5912 15.0003 19.1172 15.6325 20.2423 16.7577C21.3675 17.8828 21.9997 19.4088 22 21H19.998ZM16 21H14C14 19.6739 13.4732 18.4021 12.5355 17.4645C11.5979 16.5268 10.3261 16 9 16C7.67392 16 6.40215 16.5268 5.46447 17.4645C4.52678 18.4021 4 19.6739 4 21H2C2 19.1435 2.7375 17.363 4.05025 16.0503C5.36301 14.7375 7.14348 14 9 14C10.8565 14 12.637 14.7375 13.9497 16.0503C15.2625 17.363 16 19.1435 16 21Z" />
    </symbol>
    <symbol viewBox="0 0 16 16" id="person" xmlns="http://www.w3.org/2000/svg">
        <path d="M8 8C8.79565 8 9.55871 7.68393 10.1213 7.12132C10.6839 6.55871 11 5.79565 11 5C11 4.20435 10.6839 3.44129 10.1213 2.87868C9.55871 2.31607 8.79565 2 8 2C7.20435 2 6.44129 2.31607 5.87868 2.87868C5.31607 3.44129 5 4.20435 5 5C5 5.79565 5.31607 6.55871 5.87868 7.12132C6.44129 7.68393 7.20435 8 8 8ZM10 5C10 5.53043 9.78929 6.03914 9.41421 6.41421C9.03914 6.78929 8.53043 7 8 7C7.46957 7 6.96086 6.78929 6.58579 6.41421C6.21071 6.03914 6 5.53043 6 5C6 4.46957 6.21071 3.96086 6.58579 3.58579C6.96086 3.21071 7.46957 3 8 3C8.53043 3 9.03914 3.21071 9.41421 3.58579C9.78929 3.96086 10 4.46957 10 5ZM14 13C14 14 13 14 13 14H3C3 14 2 14 2 13C2 12 3 9 8 9C13 9 14 12 14 13ZM13 12.996C12.999 12.75 12.846 12.01 12.168 11.332C11.516 10.68 10.289 10 8 10C5.71 10 4.484 10.68 3.832 11.332C3.154 12.01 3.002 12.75 3 12.996H13Z" />
    </symbol>
    <symbol viewBox="0 0 24 24" id="search" xmlns="http://www.w3.org/2000/svg">
        <path d="M10 18C11.775 17.9996 13.4988 17.4054 14.897 16.312L19.293 20.708L20.707 19.294L16.311 14.898C17.405 13.4997 17.9996 11.7754 18 10C18 5.589 14.411 2 10 2C5.589 2 2 5.589 2 10C2 14.411 5.589 18 10 18ZM10 4C13.309 4 16 6.691 16 10C16 13.309 13.309 16 10 16C6.691 16 4 13.309 4 10C4 6.691 6.691 4 10 4Z" />
    </symbol>
    <symbol viewBox="0 0 30 30" id="sort" xmlns="http://www.w3.org/2000/svg">
        <path fill-rule="evenodd" clip-rule="evenodd" d="M21.25 9.06255L15 18.4376L8.75 9.06255C8.66792 8.93944 8.5624 8.83369 8.43946 8.75136C8.31651 8.66903 8.17856 8.61171 8.03347 8.5827C7.88838 8.55368 7.73899 8.55352 7.59384 8.58224C7.44868 8.61095 7.31061 8.66798 7.1875 8.75005C7.06438 8.83213 6.95864 8.93765 6.8763 9.06059C6.79397 9.18353 6.73666 9.32149 6.70764 9.46658C6.67862 9.61167 6.67847 9.76106 6.70718 9.90621C6.7359 10.0514 6.79292 10.1894 6.875 10.3126L13.96 20.9401C14.0742 21.1112 14.2288 21.2516 14.4102 21.3487C14.5916 21.4458 14.7942 21.4966 15 21.4966C15.2058 21.4966 15.4083 21.4458 15.5898 21.3487C15.7712 21.2516 15.9258 21.1112 16.04 20.9401L23.125 10.3126C23.2071 10.1894 23.2641 10.0514 23.2928 9.90621C23.3215 9.76106 23.3214 9.61167 23.2924 9.46658C23.2633 9.32149 23.206 9.18353 23.1237 9.06059C23.0414 8.93765 22.9356 8.83213 22.8125 8.75005C22.6894 8.66798 22.5513 8.61095 22.4062 8.58224C22.261 8.55352 22.1116 8.55368 21.9665 8.5827C21.8214 8.61171 21.6835 8.66903 21.5605 8.75136C21.4376 8.83369 21.3321 8.93944 21.25 9.06255Z" />
    </symbol>
    <symbol viewBox="0 0 18 18" id="star" xmlns="http://www.w3.org/2000/svg">
        <path d="M15.9627 6.20682L11.4996 5.55819L9.50448 1.51346C9.44999 1.40272 9.36034 1.31307 9.2496 1.25858C8.97186 1.12147 8.63436 1.23572 8.49549 1.51346L6.50038 5.55819L2.03729 6.20682C1.91425 6.2244 1.80174 6.2824 1.71561 6.37029C1.61148 6.47732 1.5541 6.62131 1.55608 6.77062C1.55806 6.91993 1.61923 7.06235 1.72616 7.16658L4.95526 10.3148L4.19237 14.7603C4.17448 14.8637 4.18592 14.9701 4.2254 15.0673C4.26488 15.1646 4.33082 15.2488 4.41573 15.3105C4.50065 15.3722 4.60114 15.4088 4.70583 15.4163C4.81051 15.4237 4.91519 15.4017 5.00799 15.3527L8.99999 13.2539L12.992 15.3527C13.101 15.4107 13.2275 15.4301 13.3488 15.409C13.6547 15.3562 13.8603 15.0662 13.8076 14.7603L13.0447 10.3148L16.2738 7.16658C16.3617 7.08045 16.4197 6.96795 16.4373 6.8449C16.4848 6.53729 16.2703 6.25252 15.9627 6.20682ZM11.6859 9.87186L12.3205 13.5685L8.99999 11.8248L5.67948 13.5703L6.31405 9.87362L3.62811 7.25447L7.34061 6.71483L8.99999 3.35213L10.6594 6.71483L14.3719 7.25447L11.6859 9.87186Z" />
    </symbol>
</svg>